<svg xmlns="http://www.w3.org/2000/svg" xmlns:xlink="http://www.w3.org/1999/xlink" viewBox="0,0,256,256" width="96px" height="96px"><g fill-opacity="0.94118" fill="#a7a0a0" fill-rule="nonzero" stroke="none" stroke-width="1" stroke-linecap="butt" stroke-linejoin="miter" stroke-miterlimit="10" stroke-dasharray="" stroke-dashoffset="0" font-family="none" font-weight="none" font-size="none" text-anchor="none" style="mix-blend-mode: normal"><path d="M0,256v-256h256v256z" id="bgRectangle"></path></g><g fill="none" fill-rule="nonzero" stroke="none" stroke-width="1" stroke-linecap="butt" stroke-linejoin="miter" stroke-miterlimit="10" stroke-dasharray="" stroke-dashoffset="0" font-family="none" font-weight="none" font-size="none" text-anchor="none" style="mix-blend-mode: normal"><g transform="scale(5.33333,5.33333)"><path d="M18.125,7l-0.125,8h-13c0,0 0,-2.567 0,-4.5c0,-1.933 1.567,-3.5 3.5,-3.5c1.933,0 9.625,0 9.625,0z" fill="#37474f"></path><path d="M30.009,5.627l1.85,-3.117c0.282,-0.475 0.125,-1.089 -0.349,-1.371c-0.475,-0.283 -1.088,-0.125 -1.371,0.349l-1.945,3.276c-1.305,-0.488 -2.716,-0.764 -4.194,-0.764c-1.478,0 -2.889,0.276 -4.195,0.765l-1.945,-3.276c-0.282,-0.474 -0.895,-0.632 -1.371,-0.349c-0.475,0.282 -0.631,0.896 -0.349,1.371l1.85,3.117c-3.301,1.92 -5.608,5.362 -5.94,9.373h23.9c-0.332,-4.012 -2.639,-7.454 -5.941,-9.374z" fill="#00e676"></path><circle cx="19" cy="10" r="1" fill="#ffffff"></circle><circle cx="29" cy="10" r="1" fill="#ffffff"></circle><path d="M39.5,14c-0.494,0 -30.14,0 -31,0c-1.933,0 -3.5,-1.567 -3.5,-3.5c0,0.001 0,25.067 0,27c0,1.933 1.567,3.5 3.5,3.5c0.86,0 34.5,0 34.5,0c0,0 0,-21.567 0,-23.5c0,-1.933 -1.567,-3.5 -3.5,-3.5z" fill="#448aff"></path><path d="M39.5,21c-0.342,0 -0.871,0 -1.5,0v25.875c0.629,0 1.158,0 1.5,0c1.933,0 3.5,-1.567 3.5,-3.5c0,-1.933 0,-25.875 0,-25.875c0,1.933 -1.567,3.5 -3.5,3.5z" fill="#37474f"></path><path d="M33.768,44.061l-7.444,-15.819c1.011,-0.727 1.676,-1.905 1.676,-3.242c0,-1.858 -1.28,-3.411 -3,-3.858v-2.142c0,-0.552 -0.448,-1 -1,-1c-0.552,0 -1,0.448 -1,1v2.142c-1.72,0.447 -3,2 -3,3.858c0,1.337 0.665,2.515 1.676,3.242l-7.44,15.811c-0.424,0.901 -0.201,2.025 0.62,2.588c1.047,0.718 2.437,0.309 2.954,-0.79l4.643,-9.866c0.616,-1.309 2.479,-1.309 3.095,0l4.643,9.866c0.34,0.725 1.059,1.149 1.81,1.149c0.411,0 0.832,-0.128 1.203,-0.402c0.778,-0.574 0.976,-1.662 0.564,-2.537zM24,23c1.103,0 2,0.897 2,2c0,1.103 -0.897,2 -2,2c-1.103,0 -2,-0.897 -2,-2c0,-1.103 0.897,-2 2,-2z" fill="#37474f"></path></g></g></svg>